HIERARCHY
ROOT hip
{
  OFFSET 0 0 0
  CHANNELS 6 Xposition Yposition Zposition Zrotation Yrotation Xrotation
  JOINT abdomen
  {
    OFFSET 0 20.6881 -0.73152
    CHANNELS 3 Zrotation Xrotation Yrotation
    JOINT chest
    {
      OFFSET 0 11.7043 -0.48768
      CHANNELS 3 Zrotation Xrotation Yrotation
      JOINT neck
      {
        OFFSET 0 22.1894 -2.19456
        CHANNELS 3 Zrotation Xrotation Yrotation
        JOINT head
        {
          OFFSET -0.24384 7.07133 1.2192
          CHANNELS 3 Zrotation Xrotation Yrotation
          JOINT leftEye
          {
            OFFSET 4.14528 8.04674 8.04672
            CHANNELS 3 Zrotation Xrotation Yrotation
            End Site
            {
              OFFSET 1 0 0
            }
          }
          JOINT rightEye
          {
            OFFSET -3.6576 8.04674 8.04672
            CHANNELS 3 Zrotation Xrotation Yrotation
            End Site
            {
              OFFSET 1 0 0
            }
          }
        }
      }
      JOINT rCollar
      {
        OFFSET -2.68224 19.2634 -4.8768
        CHANNELS 3 Zrotation Xrotation Yrotation
        JOINT rShldr
        {
          OFFSET -8.77824 -1.95073 1.46304
          CHANNELS 3 Zrotation Xrotation Yrotation
          JOINT rForeArm
          {
            OFFSET -28.1742 -1.7115 0.48768
            CHANNELS 3 Zrotation Xrotation Yrotation
            JOINT rHand
            {
              OFFSET -22.5879 0.773209 7.07136
              CHANNELS 3 Zrotation Xrotation Yrotation
              JOINT rThumb1
              {
                OFFSET -1.2192 -0.487915 3.41376
                CHANNELS 3 Zrotation Xrotation Yrotation
                JOINT rThumb2
                {
                  OFFSET -3.37035 -0.52449 3.41376
                  CHANNELS 3 Zrotation Xrotation Yrotation
                  End Site
                  {
                    OFFSET -1.78271 -1.18214 1.43049
                  }
                }
              }
              JOINT rIndex1
              {
                OFFSET -7.75947 0.938293 5.60832
                CHANNELS 3 Zrotation Xrotation Yrotation
                JOINT rIndex2
                {
                  OFFSET -2.54057 -0.884171 1.56538
                  CHANNELS 3 Zrotation Xrotation Yrotation
                  End Site
                  {
                    OFFSET -1.62519 -0.234802 1.16502
                  }
                }
              }
              JOINT rMid1
              {
                OFFSET -8.24714 1.18213 3.41376
                CHANNELS 3 Zrotation Xrotation Yrotation
                JOINT rMid2
                {
                  OFFSET -3.10165 -0.590103 1.0647
                  CHANNELS 3 Zrotation Xrotation Yrotation
                  End Site
                  {
                    OFFSET -2.48547 -0.328903 0.83742
                  }
                }
              }
              JOINT rRing1
              {
                OFFSET -8.82822 0.546677 1.51678
                CHANNELS 3 Zrotation Xrotation Yrotation
                JOINT rRing2
                {
                  OFFSET -2.60934 -0.819778 -0.0198488
                  CHANNELS 3 Zrotation Xrotation Yrotation
                  End Site
                  {
                    OFFSET -2.33842 -0.294052 0.168128
                  }
                }
              }
              JOINT rPinky1
              {
                OFFSET -8.27202 -0.0477905 -0.4584
                CHANNELS 3 Zrotation Xrotation Yrotation
                JOINT rPinky2
                {
                  OFFSET -1.82734 -0.647385 -0.700984
                  CHANNELS 3 Zrotation Xrotation Yrotation
                  End Site
                  {
                    OFFSET -1.69225 -0.51767 -0.607171
                  }
                }
              }
            }
          }
        }
      }
      JOINT lCollar
      {
        OFFSET 2.68224 19.2634 -4.8768
        CHANNELS 3 Zrotation Xrotation Yrotation
        JOINT lShldr
        {
          OFFSET 8.77824 -1.95073 1.46304
          CHANNELS 3 Zrotation Xrotation Yrotation
          JOINT lForeArm
          {
            OFFSET 28.1742 -1.7115 0.48768
            CHANNELS 3 Zrotation Xrotation Yrotation
            JOINT lHand
            {
              OFFSET 22.5879 0.773209 7.07136
              CHANNELS 3 Zrotation Xrotation Yrotation
              JOINT lThumb1
              {
                OFFSET 1.2192 -0.487915 3.41376
                CHANNELS 3 Zrotation Xrotation Yrotation
                JOINT lThumb2
                {
                  OFFSET 3.37035 -0.52449 3.41376
                  CHANNELS 3 Zrotation Xrotation Yrotation
                  End Site
                  {
                    OFFSET 1.78271 -1.18214 1.43049
                  }
                }
              }
              JOINT lIndex1
              {
                OFFSET 7.75947 0.938293 5.60832
                CHANNELS 3 Zrotation Xrotation Yrotation
                JOINT lIndex2
                {
                  OFFSET 2.54057 -0.884171 1.56538
                  CHANNELS 3 Zrotation Xrotation Yrotation
                  End Site
                  {
                    OFFSET 1.62519 -0.234802 1.16502
                  }
                }
              }
              JOINT lMid1
              {
                OFFSET 8.24714 1.18213 3.41376
                CHANNELS 3 Zrotation Xrotation Yrotation
                JOINT lMid2
                {
                  OFFSET 3.10165 -0.590103 1.0647
                  CHANNELS 3 Zrotation Xrotation Yrotation
                  End Site
                  {
                    OFFSET 2.48547 -0.328903 0.83742
                  }
                }
              }
              JOINT lRing1
              {
                OFFSET 8.82822 0.546677 1.51678
                CHANNELS 3 Zrotation Xrotation Yrotation
                JOINT lRing2
                {
                  OFFSET 2.60934 -0.819778 -0.0198488
                  CHANNELS 3 Zrotation Xrotation Yrotation
                  End Site
                  {
                    OFFSET 2.33842 -0.294052 0.168128
                  }
                }
              }
              JOINT lPinky1
              {
                OFFSET 8.27202 -0.0477905 -0.4584
                CHANNELS 3 Zrotation Xrotation Yrotation
                JOINT lPinky2
                {
                  OFFSET 1.82734 -0.647385 -0.700984
                  CHANNELS 3 Zrotation Xrotation Yrotation
                  End Site
                  {
                    OFFSET 1.69225 -0.51767 -0.607171
                  }
                }
              }
            }
          }
        }
      }
    }
  }
  JOINT rButtock
  {
    OFFSET -8.77824 4.35084 1.2192
    CHANNELS 3 Zrotation Xrotation Yrotation
    JOINT rThigh
    {
      OFFSET 0 -1.70687 -2.19456
      CHANNELS 3 Zrotation Xrotation Yrotation
      JOINT rShin
      {
        OFFSET 0 -36.8199 0.73152
        CHANNELS 3 Zrotation Xrotation Yrotation
        JOINT rFoot
        {
          OFFSET 0.73152 -45.1104 -5.12064
          CHANNELS 3 Zrotation Xrotation Yrotation
          End Site
          {
            OFFSET -1.1221 -3.69964 12.103
          }
        }
      }
    }
  }
  JOINT lButtock
  {
    OFFSET 8.77824 4.35084 1.2192
    CHANNELS 3 Zrotation Xrotation Yrotation
    JOINT lThigh
    {
      OFFSET 0 -1.70687 -2.19456
      CHANNELS 3 Zrotation Xrotation Yrotation
      JOINT lShin
      {
        OFFSET 0 -36.8199 0.73152
        CHANNELS 3 Zrotation Xrotation Yrotation
        JOINT lFoot
        {
          OFFSET -0.73152 -45.1104 -5.12064
          CHANNELS 3 Zrotation Xrotation Yrotation
          End Site
          {
            OFFSET 1.1221 -3.69964 12.103
          }
        }
      }
    }
  }
}
MOTION
Frames:	4
Frame Time:	0.03333
0.5098052322864532 -4.855663701891899 0.6697468459606171 2.514653444290161 45.933170318603516 3.04890513420105 -8.82793140411377 9.35073184967041 -2.595517635345459 6.168735980987549 -10.261730194091797 -0.22403697669506073 -10.236492156982422 20.507600784301758 -16.94193458557129 17.526317596435547 -23.648099899291992 -30.362163543701172 -0.20975902676582336 0.08814101666212082 -0.015037577599287033 0.2797549366950989 0.0998908206820488 0.0037609480787068605 0.3504399061203003 0.2851538062095642 -0.1314270794391632 57.90116882324219 -2.377866744995117 26.387157440185547 -28.472837448120117 -32.17734909057617 70.6903076171875 -0.24921417236328125 16.256105422973633 2.217813730239868 0.07085331529378891 0.021414950489997864 -0.14472995698451996 0.29039138555526733 -0.22625912725925446 -0.03473026305437088 -0.2780970633029938 0.1915852278470993 -0.10885723680257797 7.987747669219971 5.403113842010498 0.5983631014823914 -0.05711904168128967 -0.13491222262382507 0.32199475169181824 2.9594271183013916 0.949575662612915 0.2353968322277069 0.5649668574333191 0.04728832468390465 0.2909106910228729 10.234488487243652 0.4415569007396698 0.22739861905574799 -0.3623151183128357 0.026021137833595276 -0.033206988126039505 2.305933713912964 -0.7321966290473938 -0.15394830703735352 -0.10971364378929138 -0.08243847638368607 -0.1825750470161438 -63.58815002441406 78.9451904296875 -9.11959171295166 28.096744537353516 -40.937129974365234 -85.70662689208984 33.38772201538086 -78.29290008544922 40.36262893676758 0.26455986499786377 -0.19562053680419922 0.09608598053455353 -0.40020492672920227 0.18105082213878632 -0.04962118715047836 -0.12463491410017014 0.20719507336616516 0.06081569567322731 -7.858574390411377 5.610670566558838 -0.26154401898384094 -0.06567089259624481 -0.19951021671295166 0.03707544505596161 -2.798062562942505 1.0688905715942383 -0.14876724779605865 0.21498148143291473 0.10501598566770554 -0.05082013085484505 -10.213888168334961 0.7447680830955505 0.0770743265748024 -0.2283598929643631 -0.21668051183223724 0.0005435951752588153 -2.4729528427124023 -0.834636926651001 0.44959476590156555 -0.11045635491609573 0.048438288271427155 -0.008630035445094109 -66.95956420898438 -45.00349807739258 -67.4699478149414 -2.6050641536712646 67.0623779296875 2.5868663787841797 0.07413988560438156 4.070611476898193 8.220786094665527 -0.07941395789384842 0.048863038420677185 -0.14979101717472076 31.965211868286133 -23.600082397460938 36.431739807128906 2.3851494789123535 78.47237396240234 -5.628946781158447 12.998764991760254 -30.187057495117188 24.872028350830078
0.5376104265451431 -4.878963902592659 0.6792065687477589 2.234903335571289 45.733150482177734 3.607682228088379 -9.010899543762207 9.356799125671387 -2.499781608581543 6.127544403076172 -10.17326831817627 -0.39373093843460083 -10.1635103225708 20.59735107421875 -16.869853973388672 17.763341903686523 -24.042016983032227 -30.14762306213379 -0.16878588497638702 0.062461014837026596 0.0797523483633995 0.4157349765300751 0.07525672763586044 0.04963622987270355 0.47522810101509094 0.3447643518447876 -0.11819949746131897 57.1767463684082 -1.830641269683838 26.557109832763672 -28.496257781982422 -31.682851791381836 69.94163513183594 -0.2819092273712158 16.484464645385742 2.1465342044830322 0.036034874618053436 0.1412298083305359 -0.0897914320230484 0.36488980054855347 -0.20288020372390747 -0.12189099192619324 -0.2759316861629486 0.20864057540893555 -0.21556060016155243 8.04480266571045 5.418290615081787 0.6909818053245544 -0.044199950993061066 -0.282859742641449 0.2545624077320099 2.941336154937744 0.8355147242546082 0.14199919998645782 0.5274619460105896 0.15157657861709595 0.3747808039188385 10.460003852844238 0.38247597217559814 0.23249949514865875 -0.2534387707710266 -0.07531143724918365 0.06105503812432289 2.3341355323791504 -0.7473906874656677 -0.27281060814857483 -0.140960693359375 0.05658881366252899 -0.17133231461048126 -62.28351593017578 78.60884094238281 -9.912678718566895 28.179004669189453 -40.739871978759766 -85.22056579589844 30.577529907226562 -77.48279571533203 37.4912223815918 0.310011088848114 -0.2284708321094513 0.07683241367340088 -0.2325032502412796 0.16869789361953735 -0.028026999905705452 -0.21802324056625366 0.15141578018665314 0.0017011710442602634 -7.745067119598389 5.562711238861084 -0.11990353465080261 -0.026915546506643295 -0.3427939713001251 0.12902209162712097 -2.8540451526641846 1.1164977550506592 -0.09887455403804779 0.12038685381412506 0.17625929415225983 -0.21818868815898895 -10.159514427185059 0.6279813647270203 0.05113246664404869 -0.32492679357528687 -0.34391093254089355 -0.026828477159142494 -2.468076229095459 -0.9339278936386108 0.5233713388442993 -0.17152443528175354 0.06293514370918274 -0.05187824368476868 -66.30067443847656 -45.71500778198242 -66.92137908935547 -2.622889280319214 67.40294647216797 2.6997644901275635 -0.12647315859794617 3.7936952114105225 7.622413158416748 -0.10859528928995132 0.02695745974779129 -0.23684583604335785 31.40668296813965 -23.488130569458008 35.69556427001953 2.130096673965454 77.39939880371094 -5.331135272979736 12.644601821899414 -29.87255096435547 24.46119499206543
0.5429763346910477 -4.883489012718201 0.7020590826869011 0.4001437723636627 46.03754425048828 3.5074265003204346 -8.22541332244873 8.328031539916992 -2.588447093963623 6.122920036315918 -10.126718521118164 -0.2653781473636627 -10.328227043151855 20.585500717163086 -16.584884643554688 17.687955856323242 -23.6268310546875 -29.984466552734375 -0.05820908397436142 0.16897650063037872 0.07163487374782562 0.16047731041908264 0.06371425837278366 0.26322972774505615 0.3837985396385193 0.22198905050754547 -0.13740795850753784 58.40756607055664 -1.6328331232070923 25.297353744506836 -28.429765701293945 -31.90236473083496 70.3851318359375 -0.29945987462997437 16.55742835998535 2.258986473083496 0.09829368442296982 -0.04833581671118736 0.029933365061879158 0.3454863727092743 -0.029932375997304916 -0.03037412278354168 -0.09219704568386078 0.12115519493818283 0.0006041190354153514 7.91635274887085 5.448420524597168 0.6985422968864441 -0.21894770860671997 -0.05475236847996712 0.17754529416561127 2.8050670623779297 0.7860487699508667 0.4415130913257599 0.4413865804672241 -0.07732681185007095 0.33237266540527344 10.184897422790527 0.4802340567111969 0.3481721580028534 0.07558980584144592 0.19809043407440186 -0.005454626400023699 2.2067060470581055 -0.9320592880249023 -0.10885543376207352 0.11110997945070267 -0.05403968319296837 -0.15831483900547028 -65.65133666992188 78.71033477783203 -7.150913715362549 27.967378616333008 -41.51142883300781 -86.87255859375 39.71702194213867 -79.376708984375 46.66144561767578 0.21904051303863525 -0.38756370544433594 0.016588209196925163 -0.08728835731744766 0.16596442461013794 -0.010889786295592785 -0.032814204692840576 0.18188709020614624 0.08837798237800598 -7.766076564788818 5.5308918952941895 -0.16558751463890076 0.063118577003479 -0.2919018566608429 0.09995511174201965 -2.8914289474487305 1.0471656322479248 -0.31535059213638306 0.018291400745511055 0.15190768241882324 -0.11905712634325027 -10.14784049987793 0.7166945338249207 0.07932781428098679 -0.13698077201843262 -0.05703553184866905 0.013534286059439182 -2.451098918914795 -0.9513663053512573 0.2775163948535919 -0.006442772224545479 -0.04688786715269089 0.14759404957294464 -64.0477294921875 -45.507972717285156 -64.69163513183594 -2.361994981765747 66.39494323730469 2.4137790203094482 0.008876219391822815 3.947455883026123 7.891334533691406 -0.21257616579532623 0.0259451474994421 -0.1465446949005127 30.96970558166504 -24.357540130615234 35.3930778503418 2.1896026134490967 78.49600982666016 -5.384963512420654 12.5287446975708 -29.864168167114258 24.247833251953125
0.5304288119077682 -4.840881377458572 0.7185230031609535 0.8907949924468994 45.96626281738281 2.5827062129974365 -7.823670387268066 8.099518775939941 -2.380769968032837 5.910791397094727 -10.13424015045166 -0.19202548265457153 -10.150538444519043 20.145029067993164 -16.06092643737793 16.991369247436523 -22.449386596679688 -29.177234649658203 0.0554356649518013 0.1379670947790146 0.08928172290325165 -0.01784731075167656 0.044945891946554184 0.18005430698394775 0.24506719410419464 0.2145288735628128 -0.11781349778175354 58.978702545166016 -1.7106553316116333 24.968242645263672 -28.44548988342285 -31.75446891784668 70.15171813964844 -0.24242335557937622 16.836870193481445 2.41180682182312 0.07816310971975327 0.020855093374848366 0.09139678627252579 0.24527384340763092 0.01090409979224205 -0.014314807951450348 0.08634740114212036 0.09634348005056381 0.028600279241800308 7.919445991516113 5.458970546722412 0.6447502970695496 -0.28249725699424744 0.050666216760873795 -0.04097617790102959 2.6798927783966064 0.7238401770591736 0.5199357271194458 0.42304638028144836 -0.17803505063056946 0.2785986065864563 10.045398712158203 0.37362027168273926 0.37916091084480286 0.009099011309444904 0.16841618716716766 -0.10618481785058975 2.3330557346343994 -1.0651617050170898 -0.15932373702526093 0.0871715322136879 0.058369074016809464 -0.13566313683986664 -66.15910339355469 78.0888900756836 -6.666055679321289 27.746198654174805 -41.949127197265625 -87.63221740722656 40.45241165161133 -79.30304718017578 47.50056838989258 -0.02707665227353573 -0.4246200621128082 0.022222399711608887 -0.16509614884853363 -0.025381674990057945 0.023772921413183212 0.053416259586811066 0.18929217755794525 -0.0060722664929926395 -7.625686168670654 5.385196208953857 -0.3466474711894989 -0.04290062561631203 -0.19122160971164703 0.05067522078752518 -2.8725316524505615 0.9624177813529968 -0.2678413391113281 0.11059027165174484 0.10826742649078369 -0.1881028264760971 -10.098896980285645 0.7933124899864197 -0.052032191306352615 -0.08646506816148758 -0.07075665146112442 -0.03781440854072571 -2.4073524475097656 -0.9418355226516724 0.1519724428653717 -0.03623497113585472 0.01438243966549635 0.20380067825317383 -63.7294807434082 -45.51873016357422 -63.48189163208008 -1.9432495832443237 65.92484283447266 2.089259386062622 0.11799808591604233 4.573211193084717 8.02932357788086 -0.1557445079088211 0.05121760442852974 -0.21422509849071503 30.234588623046875 -24.571151733398438 34.237979888916016 3.251070261001587 78.92981719970703 -6.397885799407959 11.986103057861328 -30.042770385742188 23.546165466308594
